{"glyphs":{"0":{"ha":927,"x_min":-37,"x_max":812,"o":"m 812 18 l 698 139 q 388 -20 586 -20 q 93 117 205 -20 q -27 539 -27 265 q 28 851 -27 721 l -35 919 l -37 1052 l 73 936 q 388 1100 186 1100 q 683 962 572 1100 q 803 539 803 814 q 745 222 803 354 l 812 150 l 812 18 m 687 539 q 609 877 687 755 q 388 999 532 999 q 153 851 232 999 l 658 314 q 687 539 687 417 m 620 222 l 116 758 q 88 539 88 659 q 167 203 88 324 q 388 81 245 81 q 620 222 540 81 z "},"1":{"ha":927,"x_min":153,"x_max":616,"o":"m 616 0 l 153 0 l 153 100 l 327 100 l 327 864 q 153 770 280 770 l 153 888 q 327 1080 327 888 l 442 1080 l 442 100 l 616 100 l 616 0 z "},"2":{"ha":927,"x_min":5,"x_max":729,"o":"m 729 801 q 669 607 729 694 q 532 453 640 563 q 428 346 497 418 q 179 100 312 227 l 624 100 l 624 302 l 725 302 l 725 0 l 29 0 l 29 100 l 449 528 q 558 650 530 610 q 611 802 611 727 q 537 948 611 891 q 376 999 468 999 q 179 917 249 999 q 114 710 114 840 l 5 710 q 101 996 5 891 q 376 1100 197 1100 q 619 1023 519 1100 q 729 801 729 939 z "},"3":{"ha":927,"x_min":21,"x_max":763,"o":"m 763 298 q 668 78 763 170 q 410 -20 567 -20 q 162 52 263 -20 q 21 313 39 139 l 131 331 q 229 139 144 206 q 410 81 303 81 q 580 149 510 81 q 645 297 645 213 q 534 481 645 438 q 333 501 480 501 l 333 617 q 573 684 499 617 q 625 802 625 732 q 569 941 625 886 q 410 999 510 999 q 222 934 292 999 q 148 740 148 866 l 38 740 q 146 1010 38 914 q 410 1100 246 1100 q 658 1010 567 1100 q 742 801 742 928 q 674 633 742 699 q 529 572 610 572 q 684 491 611 572 q 763 298 763 405 z "},"4":{"ha":927,"x_min":0,"x_max":771,"o":"m 771 0 l 308 0 l 308 100 l 481 100 l 481 314 l 0 314 l 0 415 l 451 1080 l 597 1080 l 597 415 l 771 415 l 771 314 l 597 314 l 597 100 l 771 100 l 771 0 m 481 415 l 481 943 l 121 415 l 481 415 z "},"5":{"ha":927,"x_min":13,"x_max":787,"o":"m 787 361 q 676 93 787 207 q 390 -24 559 -24 q 146 53 246 -24 q 13 318 30 144 l 122 336 q 215 140 135 211 q 390 76 287 76 q 588 158 508 76 q 669 360 669 241 q 596 566 669 486 q 396 646 523 646 q 146 542 236 646 l 45 542 l 45 1080 l 726 1080 l 726 980 l 146 980 l 146 646 q 396 741 245 741 q 680 639 573 741 q 787 361 787 537 z "},"6":{"ha":927,"x_min":-19,"x_max":783,"o":"m 783 367 q 679 93 783 199 q 376 -20 568 -20 q 92 117 196 -20 q -19 539 -19 263 q 111 962 -19 812 q 415 1100 229 1100 q 684 989 577 1100 l 605 918 q 415 999 530 999 q 188 891 274 999 q 97 564 97 775 q 201 694 119 635 q 396 760 292 760 q 684 641 577 760 q 783 367 783 532 m 668 367 q 604 569 668 489 q 396 660 529 660 q 187 576 265 660 q 115 379 115 497 q 174 177 115 258 q 376 81 245 81 q 598 167 520 81 q 668 367 668 244 z "},"7":{"ha":927,"x_min":48,"x_max":763,"o":"m 763 980 q 516 572 587 801 q 447 0 447 354 l 328 0 q 414 592 328 348 q 653 980 492 817 l 149 980 l 149 770 l 48 770 l 48 1080 l 763 1080 l 763 980 z "},"8":{"ha":927,"x_min":-8,"x_max":780,"o":"m 780 304 q 677 73 780 162 q 375 -21 567 -21 q 85 73 186 -21 q -8 304 -8 159 q 71 495 -8 412 q 226 572 143 572 q 92 645 152 572 q 32 802 32 718 q 131 1018 32 936 q 386 1100 230 1100 q 642 1018 543 1100 q 741 802 741 936 q 681 645 741 718 q 547 572 621 572 q 702 495 629 572 q 780 304 780 412 m 624 803 q 561 946 624 893 q 386 1000 497 1000 q 212 946 275 1000 q 149 803 149 893 q 386 620 149 634 q 624 803 624 634 m 663 303 q 568 480 663 424 q 386 520 497 520 q 205 480 275 520 q 110 303 110 424 q 177 143 110 205 q 375 78 249 78 q 583 142 504 78 q 663 303 663 206 z "},"9":{"ha":927,"x_min":-9,"x_max":793,"o":"m 793 539 q 663 117 793 268 q 359 -20 545 -20 q 88 91 197 -20 l 169 162 q 359 81 244 81 q 586 188 500 81 q 677 515 677 304 q 573 385 655 444 q 378 319 482 319 q 90 438 196 319 q -9 712 -9 548 q 95 986 -9 880 q 396 1100 205 1100 q 682 962 578 1100 q 793 539 793 817 m 659 701 q 600 903 659 822 q 396 999 529 999 q 176 913 253 999 q 106 712 106 836 q 170 510 106 591 q 378 419 245 419 q 587 504 509 419 q 659 701 659 582 z "}," ":{"ha":927,"x_min":0,"x_max":0,"o":""},"!":{"ha":927,"x_min":309,"x_max":465,"o":"m 465 1076 l 422 304 l 355 304 l 312 1076 l 465 1076 m 461 0 l 309 0 l 309 150 l 461 150 l 461 0 z "},"\"":{"ha":927,"x_min":157,"x_max":620,"o":"m 620 1080 l 585 694 l 503 694 l 467 1080 l 620 1080 m 309 1080 l 274 694 l 192 694 l 157 1080 l 309 1080 z "},"#":{"ha":927,"x_min":0,"x_max":773,"o":"m 773 495 l 586 495 l 586 308 l 494 308 l 494 495 l 279 495 l 279 308 l 187 308 l 187 495 l 0 495 l 0 587 l 187 587 l 187 802 l 0 802 l 0 893 l 187 893 l 187 1080 l 279 1080 l 279 893 l 494 893 l 494 1080 l 586 1080 l 586 893 l 773 893 l 773 802 l 586 802 l 586 587 l 773 587 l 773 495 m 494 587 l 494 802 l 279 802 l 279 587 l 494 587 z "},"$":{"ha":927,"x_min":-1,"x_max":745,"o":"m 745 282 q 660 81 745 165 q 446 -15 576 -3 l 446 -155 l 330 -155 l 330 -14 q 102 90 191 5 q -1 283 20 168 l 107 311 q 330 88 149 121 l 330 523 q 128 624 187 574 q 35 823 35 699 q 111 1004 35 928 q 330 1097 193 1086 l 330 1235 l 446 1235 l 446 1093 q 648 993 569 1073 q 737 804 726 913 l 620 784 q 446 990 597 955 l 446 601 q 652 494 587 549 q 745 282 745 412 m 330 645 l 330 996 q 201 936 249 986 q 153 824 153 886 q 205 715 153 760 q 330 645 244 679 m 621 271 q 446 479 621 404 l 446 85 q 588 163 542 97 q 621 271 621 211 z "},"%":{"ha":927,"x_min":-19,"x_max":795,"o":"m 399 890 q 338 743 399 804 q 191 682 277 682 q 42 743 104 682 q -19 890 -19 804 q 42 1039 -19 977 q 191 1100 104 1100 q 338 1039 277 1100 q 399 890 399 977 m 773 1054 l 80 -24 l 3 27 l 696 1106 l 773 1054 m 795 189 q 734 41 795 102 q 586 -20 673 -20 q 437 41 499 -20 q 376 189 376 102 q 437 336 376 275 q 586 398 499 398 q 734 336 673 398 q 795 189 795 275 m 314 890 q 278 979 314 942 q 191 1015 242 1015 q 102 979 139 1015 q 66 890 66 942 q 102 802 66 838 q 191 765 139 765 q 278 802 242 765 q 314 890 314 838 m 711 189 q 674 278 711 241 q 586 314 638 314 q 497 278 534 314 q 461 189 461 241 q 497 101 461 138 q 586 64 534 64 q 674 101 638 64 q 711 189 711 138 z "},"&":{"ha":927,"x_min":-21,"x_max":793,"o":"m 793 468 q 659 188 765 326 l 793 66 l 715 -24 q 583 104 659 32 q 287 -19 448 -19 q 64 73 154 -19 q -21 277 -21 160 q 126 564 -21 452 q 16 824 16 699 q 91 1027 16 952 q 289 1101 165 1101 q 491 1027 418 1101 q 557 860 557 960 q 467 667 557 746 q 282 544 444 646 q 580 261 351 471 q 684 496 655 369 l 793 468 m 439 862 q 403 957 439 918 q 289 1000 361 1000 q 176 949 218 1000 q 134 824 134 898 q 212 622 134 723 q 369 723 341 699 q 439 862 439 784 m 505 179 q 197 482 389 290 q 102 277 102 398 q 154 145 102 198 q 287 92 206 92 q 505 179 407 92 z "},"'":{"ha":927,"x_min":313,"x_max":466,"o":"m 466 1081 l 432 696 l 348 696 l 313 1081 l 466 1081 z "},"(":{"ha":927,"x_min":155,"x_max":585,"o":"m 585 -234 l 524 -308 q 255 33 352 -167 q 155 470 155 239 q 255 907 155 699 q 524 1246 352 1105 l 585 1172 q 342 864 429 1044 q 253 470 253 678 q 342 74 253 260 q 585 -234 429 -106 z "},")":{"ha":927,"x_min":189,"x_max":619,"o":"m 619 468 q 519 32 619 237 q 250 -308 423 -168 l 189 -234 q 432 73 345 -106 q 523 468 523 260 q 432 864 523 677 q 189 1170 345 1043 l 250 1245 q 519 905 423 1105 q 619 468 619 699 z "},"*":{"ha":927,"x_min":29,"x_max":744,"o":"m 744 847 l 460 694 l 744 540 l 697 461 l 423 630 l 432 308 l 340 308 l 350 630 l 74 461 l 29 540 l 312 694 l 29 847 l 74 927 l 350 758 l 340 1080 l 432 1080 l 423 758 l 697 927 l 744 847 z "},"+":{"ha":927,"x_min":0,"x_max":771,"o":"m 771 494 l 432 494 l 432 154 l 340 154 l 340 494 l 0 494 l 0 586 l 340 586 l 340 926 l 432 926 l 432 586 l 771 586 l 771 494 z "},",":{"ha":927,"x_min":198,"x_max":506,"o":"m 506 306 l 279 -158 l 198 -158 l 354 306 l 506 306 z "},"-":{"ha":927,"x_min":154,"x_max":617,"o":"m 617 495 l 154 495 l 154 587 l 617 587 l 617 495 z "},".":{"ha":927,"x_min":309,"x_max":461,"o":"m 461 -5 l 309 -5 l 309 146 l 461 146 l 461 -5 z "},"/":{"ha":927,"x_min":110,"x_max":827,"o":"m 827 1080 l 192 -199 l 110 -158 l 745 1121 l 827 1080 z "},":":{"ha":927,"x_min":309,"x_max":461,"o":"m 461 617 l 309 617 l 309 768 l 461 768 l 461 617 m 461 -5 l 309 -5 l 309 146 l 461 146 l 461 -5 z "},";":{"ha":927,"x_min":198,"x_max":506,"o":"m 461 617 l 309 617 l 309 768 l 461 768 l 461 617 m 506 304 l 279 -159 l 198 -159 l 354 304 l 506 304 z "},"<":{"ha":927,"x_min":165,"x_max":654,"o":"m 654 182 l 588 116 l 165 539 l 588 963 l 654 898 l 295 539 l 654 182 z "},"=":{"ha":927,"x_min":0,"x_max":771,"o":"m 771 681 l 0 681 l 0 771 l 771 771 l 771 681 m 771 309 l 0 309 l 0 402 l 771 402 l 771 309 z "},">":{"ha":927,"x_min":119,"x_max":607,"o":"m 607 539 l 183 116 l 119 182 l 477 539 l 119 898 l 183 963 l 607 539 z "},"?":{"ha":927,"x_min":139,"x_max":754,"o":"m 754 831 q 670 635 754 726 q 515 489 593 562 q 432 302 432 400 l 311 302 q 395 516 311 414 q 552 672 473 593 q 636 833 636 758 q 452 999 636 999 q 316 947 370 999 q 249 771 254 886 l 139 799 q 251 1034 158 957 q 452 1100 331 1100 q 674 1027 595 1100 q 754 831 754 953 m 461 0 l 309 0 l 309 150 l 461 150 l 461 0 z "},"@":{"ha":927,"x_min":-29,"x_max":802,"o":"m 802 540 q 753 297 802 381 q 650 227 711 227 q 580 260 610 227 q 549 343 549 293 l 549 399 q 354 241 492 241 q 188 330 246 241 q 139 523 139 405 l 139 523 q 202 734 139 648 q 404 831 275 831 q 549 771 473 831 l 549 817 l 634 817 l 634 343 q 667 306 634 306 q 716 355 696 306 q 741 540 741 417 q 649 915 741 780 q 386 1051 557 1051 q 124 915 216 1051 q 32 540 32 780 q 124 167 32 302 q 386 32 216 32 q 611 121 523 32 l 655 90 q 386 -19 548 -19 q 92 117 202 -19 q -29 540 -29 266 q 92 963 -29 814 q 386 1100 202 1100 q 682 963 571 1100 q 802 540 802 814 m 549 580 l 549 687 q 404 764 476 764 q 261 682 309 764 q 223 523 223 617 q 259 375 223 429 q 354 321 294 321 q 504 399 452 321 q 549 580 549 468 z "},"A":{"ha":927,"x_min":-51,"x_max":824,"o":"m 824 0 l 702 0 l 601 309 l 173 309 l 73 0 l -51 0 l 311 1080 l 465 1080 l 824 0 m 568 409 l 388 965 l 206 409 l 568 409 z "},"B":{"ha":927,"x_min":40,"x_max":770,"o":"m 770 309 q 355 0 770 0 l 40 0 l 40 1081 l 336 1081 q 591 1040 504 1081 q 732 799 732 975 q 566 569 732 630 q 770 309 770 505 m 616 799 q 519 953 616 912 q 336 981 457 981 l 157 981 l 157 617 l 336 617 q 523 645 461 617 q 616 799 616 688 m 654 309 q 355 518 654 518 l 157 518 l 157 101 l 355 101 q 654 309 654 101 z "},"C":{"ha":927,"x_min":-15,"x_max":779,"o":"m 779 284 q 630 56 732 134 q 399 -19 533 -19 q 105 117 215 -19 q -15 540 -15 266 q 105 963 -15 814 q 399 1100 215 1100 q 669 955 598 1100 l 669 1081 l 770 1081 l 770 725 l 669 725 q 586 928 669 851 q 399 1000 508 1000 q 178 878 256 1000 q 100 540 100 756 q 178 205 100 324 q 399 81 256 81 q 672 326 605 81 l 779 284 z "},"D":{"ha":927,"x_min":40,"x_max":808,"o":"m 808 540 q 684 128 808 270 q 393 0 573 0 l 40 0 l 40 1081 l 393 1081 q 684 953 573 1081 q 808 540 808 811 m 692 540 q 612 866 692 751 q 393 981 533 981 l 155 981 l 155 101 l 393 101 q 612 215 533 101 q 692 540 692 330 z "},"E":{"ha":927,"x_min":38,"x_max":732,"o":"m 732 0 l 38 0 l 38 1081 l 732 1081 l 732 981 l 153 981 l 153 602 l 580 602 l 580 501 l 153 501 l 153 101 l 732 101 l 732 0 z "},"F":{"ha":927,"x_min":38,"x_max":732,"o":"m 732 981 l 153 981 l 153 602 l 580 602 l 580 501 l 153 501 l 153 0 l 38 0 l 38 1081 l 732 1081 l 732 981 z "},"G":{"ha":927,"x_min":-15,"x_max":814,"o":"m 814 540 q 694 117 814 266 q 399 -19 583 -19 q 105 117 215 -19 q -15 540 -15 266 q 105 963 -15 814 q 399 1100 215 1100 q 669 955 598 1100 l 669 1081 l 770 1081 l 770 725 l 669 725 q 586 928 669 851 q 399 1000 508 1000 q 178 878 256 1000 q 100 540 100 756 q 178 205 100 324 q 399 81 256 81 q 605 182 529 81 q 694 465 681 283 l 455 465 l 455 564 l 814 564 l 814 540 z "},"H":{"ha":927,"x_min":38,"x_max":732,"o":"m 732 0 l 616 0 l 616 501 l 153 501 l 153 0 l 38 0 l 38 1081 l 153 1081 l 153 602 l 616 602 l 616 1081 l 732 1081 l 732 0 z "},"I":{"ha":927,"x_min":154,"x_max":617,"o":"m 617 0 l 154 0 l 154 101 l 328 101 l 328 981 l 154 981 l 154 1081 l 617 1081 l 617 981 l 443 981 l 443 101 l 617 101 l 617 0 z "},"J":{"ha":927,"x_min":-4,"x_max":734,"o":"m 734 458 q 376 -19 734 -19 q 146 56 244 -19 q -4 284 43 134 l 105 326 q 376 81 172 81 q 569 182 514 81 q 617 458 617 269 l 617 1081 l 734 1081 l 734 458 z "},"K":{"ha":927,"x_min":38,"x_max":768,"o":"m 768 1 l 628 1 l 268 530 l 153 403 l 153 1 l 38 1 l 38 1082 l 153 1082 l 153 557 l 617 1082 l 768 1082 l 342 611 l 768 1 z "},"L":{"ha":927,"x_min":38,"x_max":732,"o":"m 732 0 l 38 0 l 38 1081 l 153 1081 l 153 101 l 732 101 l 732 0 z "},"M":{"ha":927,"x_min":38,"x_max":732,"o":"m 732 0 l 616 0 l 616 903 l 426 343 l 345 343 l 153 903 l 153 0 l 38 0 l 38 1081 l 188 1081 l 385 516 l 582 1081 l 732 1081 l 732 0 z "},"N":{"ha":927,"x_min":38,"x_max":732,"o":"m 732 0 l 590 0 l 153 914 l 153 0 l 38 0 l 38 1081 l 199 1081 l 616 208 l 616 1081 l 732 1081 l 732 0 z "},"O":{"ha":927,"x_min":-29,"x_max":802,"o":"m 802 540 q 682 117 802 266 q 386 -19 571 -19 q 92 117 202 -19 q -29 540 -29 266 q 92 963 -29 814 q 386 1100 202 1100 q 682 963 571 1100 q 802 540 802 814 m 686 540 q 608 878 686 756 q 386 1000 530 1000 q 165 878 244 1000 q 87 540 87 756 q 164 205 87 324 q 386 81 244 81 q 609 205 530 81 q 686 540 686 324 z "},"P":{"ha":927,"x_min":33,"x_max":763,"o":"m 763 771 q 348 463 763 463 l 149 463 l 149 0 l 33 0 l 33 1081 l 348 1081 q 763 771 763 1081 m 646 771 q 348 981 646 981 l 149 981 l 149 563 l 348 563 q 646 771 646 563 z "},"Q":{"ha":926,"x_min":-29,"x_max":802,"o":"m 802 540 q 698 141 802 289 q 442 -15 604 6 q 511 -158 455 -111 q 702 -208 574 -208 q 771 -206 735 -208 l 771 -304 q 683 -308 725 -308 q 314 -13 348 -308 q 69 149 159 15 q -29 540 -29 295 q 92 963 -29 814 q 386 1100 202 1100 q 681 963 571 1100 q 802 540 802 814 m 686 540 q 607 878 686 756 q 386 1000 529 1000 q 165 878 244 1000 q 87 540 87 756 q 165 203 87 324 q 386 82 244 82 q 607 203 529 82 q 686 540 686 324 z "},"R":{"ha":927,"x_min":33,"x_max":780,"o":"m 780 0 l 631 0 l 316 463 l 149 463 l 149 0 l 33 0 l 33 1081 l 348 1081 q 763 771 763 1081 q 453 468 763 501 l 780 0 m 646 771 q 348 981 646 981 l 149 981 l 149 563 l 348 563 q 646 771 646 563 z "},"S":{"ha":927,"x_min":21,"x_max":745,"o":"m 745 282 q 648 68 745 155 q 405 -19 552 -19 q 194 48 280 -19 q 121 157 125 104 l 121 0 l 21 0 l 21 327 l 121 327 q 196 162 121 235 q 405 81 278 81 q 582 153 525 81 q 621 271 621 203 q 470 468 621 396 q 188 583 328 527 q 35 823 35 667 q 121 1015 35 937 q 369 1100 215 1100 q 545 1042 467 1100 q 619 927 619 986 l 619 1081 l 720 1081 l 720 773 l 619 773 q 544 932 619 865 q 369 1000 470 1000 q 212 948 271 1000 q 153 824 153 895 q 307 654 153 720 q 592 535 449 595 q 745 282 745 446 z "},"T":{"ha":927,"x_min":0,"x_max":773,"o":"m 773 716 l 672 716 l 672 981 l 444 981 l 444 101 l 617 101 l 617 0 l 154 0 l 154 101 l 328 101 l 328 981 l 100 981 l 100 716 l 0 716 l 0 1081 l 773 1081 l 773 716 z "},"U":{"ha":927,"x_min":30,"x_max":744,"o":"m 744 458 q 386 -19 744 -19 q 30 458 30 -19 l 30 1081 l 145 1081 l 145 458 q 194 182 145 269 q 386 81 250 81 q 580 182 524 81 q 628 458 628 269 l 628 1081 l 744 1081 l 744 458 z "},"V":{"ha":927,"x_min":-51,"x_max":824,"o":"m 824 1080 l 463 0 l 309 0 l -51 1080 l 72 1080 l 386 115 l 701 1080 l 824 1080 z "},"W":{"ha":927,"x_min":-52,"x_max":828,"o":"m 828 1080 l 633 0 l 500 0 l 389 528 l 277 0 l 144 0 l -52 1080 l 71 1080 l 223 192 l 332 765 l 444 765 l 553 192 l 706 1080 l 828 1080 z "},"X":{"ha":927,"x_min":-15,"x_max":793,"o":"m 793 0 l 485 0 l 485 101 l 557 101 l 389 437 l 221 101 l 293 101 l 293 0 l -15 0 l -15 101 l 92 101 l 323 543 l 95 981 l 5 981 l 5 1081 l 313 1081 l 313 981 l 223 981 l 389 649 l 556 981 l 466 981 l 466 1081 l 774 1081 l 774 981 l 683 981 l 455 543 l 686 101 l 793 101 l 793 0 z "},"Y":{"ha":927,"x_min":-15,"x_max":792,"o":"m 792 981 l 703 981 l 447 467 l 447 101 l 620 101 l 620 1 l 157 1 l 157 101 l 331 101 l 331 467 l 74 981 l -15 981 l -15 1082 l 293 1082 l 293 981 l 201 981 l 388 590 l 390 590 l 576 981 l 485 981 l 485 1082 l 792 1082 l 792 981 z "},"Z":{"ha":927,"x_min":43,"x_max":739,"o":"m 739 0 l 43 0 l 43 101 l 583 981 l 144 981 l 144 716 l 43 716 l 43 1081 l 718 1081 l 718 981 l 179 101 l 638 101 l 638 366 l 739 366 l 739 0 z "},"[":{"ha":927,"x_min":309,"x_max":617,"o":"m 617 -308 l 309 -308 l 309 1236 l 617 1236 l 617 1144 l 400 1144 l 400 -216 l 617 -216 l 617 -308 z "},"\\":{"ha":927,"x_min":110,"x_max":827,"o":"m 827 -158 l 745 -199 l 110 1080 l 192 1121 l 827 -158 z "},"]":{"ha":927,"x_min":154,"x_max":463,"o":"m 463 -308 l 154 -308 l 154 -216 l 371 -216 l 371 1144 l 154 1144 l 154 1236 l 463 1236 l 463 -308 z "},"^":{"ha":927,"x_min":155,"x_max":620,"o":"m 620 462 l 539 462 l 388 874 l 236 462 l 155 462 l 311 1081 l 463 1081 l 620 462 z "},"_":{"ha":927,"x_min":0,"x_max":927,"o":"m 927 0 l 0 0 l 0 92 l 927 92 l 927 0 z "},"`":{"ha":927,"x_min":183,"x_max":573,"o":"m 573 995 l 540 941 l 183 1143 l 237 1232 l 573 995 z "},"a":{"ha":927,"x_min":1,"x_max":736,"o":"m 393 792 q 620 710 515 792 l 620 773 l 736 773 l 736 0 l 620 0 l 620 318 q 523 97 598 196 q 323 -21 434 -21 q 78 96 164 -21 q 1 366 1 201 q 105 667 1 548 q 393 792 213 792 m 620 592 q 393 698 520 698 q 184 596 259 698 q 117 366 117 505 q 162 177 117 251 q 323 87 216 87 q 544 250 453 87 q 620 532 620 389 l 620 592 z "},"b":{"ha":927,"x_min":42,"x_max":777,"o":"m 777 385 q 679 102 777 213 q 385 -21 573 -21 q 158 61 263 -21 l 158 0 l 42 0 l 42 1081 l 158 1081 l 158 710 q 385 792 263 792 q 679 668 573 792 q 777 385 777 557 m 660 385 q 598 598 660 514 q 385 698 525 698 q 158 592 258 698 l 158 178 q 385 72 258 72 q 598 172 525 72 q 660 385 660 256 z "},"c":{"ha":927,"x_min":1,"x_max":744,"o":"m 744 145 q 408 -21 639 -21 q 105 102 217 -21 q 1 385 1 215 q 97 668 1 557 q 393 792 203 792 q 549 747 479 792 q 635 646 620 703 l 635 773 l 736 773 l 736 465 l 635 465 q 556 635 635 564 q 393 698 481 698 q 178 598 251 698 q 116 385 116 514 q 186 172 116 259 q 408 72 265 72 q 563 108 494 72 q 664 201 633 144 l 744 145 z "},"d":{"ha":927,"x_min":-1,"x_max":734,"o":"m 734 0 l 617 0 l 617 61 q 390 -21 513 -21 q 95 102 201 -21 q -1 385 -1 213 q 95 668 -1 557 q 390 792 201 792 q 617 710 513 792 l 617 981 l 466 981 l 466 1081 l 734 1081 l 734 0 m 617 178 l 617 592 q 390 698 516 698 q 176 598 249 698 q 114 385 114 514 q 176 172 114 256 q 390 72 249 72 q 617 178 516 72 z "},"e":{"ha":927,"x_min":-3,"x_max":780,"o":"m 780 346 l 116 346 q 196 157 128 231 q 404 72 274 72 q 559 108 490 72 q 660 201 629 144 l 740 145 q 404 -21 635 -21 q 102 102 215 -21 q -3 385 -3 215 q 95 668 -3 557 q 389 792 201 792 q 698 649 596 792 q 780 346 780 533 m 659 447 q 389 698 622 698 q 194 621 266 698 q 117 447 133 556 l 659 447 z "},"f":{"ha":927,"x_min":157,"x_max":771,"o":"m 771 672 l 446 672 l 446 101 l 620 101 l 620 0 l 157 0 l 157 101 l 331 101 l 331 672 l 157 672 l 157 773 l 331 773 q 663 1090 331 1090 q 771 1081 713 1090 l 771 987 q 683 994 723 994 q 495 933 551 994 q 446 773 446 880 l 771 773 l 771 672 z "},"g":{"ha":927,"x_min":3,"x_max":736,"o":"m 736 24 q 652 -202 736 -112 q 369 -306 554 -306 q 33 -139 138 -306 l 112 -85 q 213 -177 144 -141 q 369 -212 283 -212 q 571 -131 506 -212 q 621 24 621 -71 l 621 81 q 393 -1 516 -1 q 98 111 203 -1 q 3 385 3 216 q 98 668 3 557 q 393 792 205 792 q 621 710 515 792 l 621 773 l 736 773 l 736 24 m 621 198 l 621 592 q 393 698 520 698 q 179 598 253 698 q 117 385 117 514 q 179 182 117 259 q 393 91 251 91 q 621 198 520 91 z "},"h":{"ha":927,"x_min":35,"x_max":731,"o":"m 731 0 l 615 0 l 615 476 q 447 682 615 682 q 229 581 312 682 q 150 346 150 486 l 150 0 l 35 0 l 35 1081 l 150 1081 l 150 578 q 447 792 231 792 q 731 476 731 792 l 731 0 z "},"i":{"ha":927,"x_min":154,"x_max":617,"o":"m 462 927 l 309 927 l 309 1081 l 462 1081 l 462 927 m 617 0 l 154 0 l 154 101 l 328 101 l 328 672 l 154 672 l 154 773 l 443 773 l 443 101 l 617 101 l 617 0 z "},"j":{"ha":927,"x_min":4,"x_max":617,"o":"m 617 927 l 465 927 l 465 1081 l 617 1081 l 617 927 m 598 24 q 520 -215 598 -129 q 288 -306 439 -306 q 4 -136 86 -306 l 90 -85 q 288 -212 150 -212 q 443 -146 398 -212 q 482 24 482 -91 l 482 24 l 482 672 l 309 672 l 309 773 l 598 773 l 598 24 z "},"k":{"ha":927,"x_min":40,"x_max":770,"o":"m 770 0 l 609 0 l 294 346 l 155 218 l 155 0 l 40 0 l 40 1081 l 155 1081 l 155 356 l 593 773 l 756 773 l 370 417 l 770 0 z "},"l":{"ha":927,"x_min":155,"x_max":619,"o":"m 619 0 l 155 0 l 155 101 l 328 101 l 328 981 l 155 981 l 155 1081 l 444 1081 l 444 101 l 619 101 l 619 0 z "},"m":{"ha":927,"x_min":3,"x_max":771,"o":"m 771 0 l 657 0 l 657 530 q 568 682 657 682 q 442 437 442 682 l 442 0 l 327 0 l 327 530 q 237 682 327 682 q 149 630 177 682 q 119 437 119 573 l 117 437 l 117 0 l 3 0 l 3 773 l 117 773 l 117 660 q 268 792 154 792 q 422 677 383 792 q 582 792 479 792 q 725 730 679 792 q 771 530 771 668 l 771 0 z "},"n":{"ha":927,"x_min":42,"x_max":739,"o":"m 739 0 l 622 0 l 622 476 q 453 682 622 682 q 236 581 318 682 q 158 346 158 486 l 158 0 l 42 0 l 42 773 l 158 773 l 158 578 q 453 792 239 792 q 739 476 739 792 l 739 0 z "},"o":{"ha":927,"x_min":-19,"x_max":794,"o":"m 794 384 q 691 101 794 215 q 388 -21 578 -21 q 86 101 198 -21 q -19 384 -19 215 q 86 668 -19 554 q 388 790 198 790 q 691 668 578 790 q 794 384 794 554 m 679 384 q 610 597 679 511 q 388 697 530 697 q 167 597 246 697 q 97 384 97 511 q 167 170 97 258 q 388 71 246 71 q 610 170 530 71 q 679 384 679 258 z "},"p":{"ha":926,"x_min":37,"x_max":771,"o":"m 771 385 q 676 101 771 212 q 380 -21 569 -21 q 153 61 258 -21 l 153 -308 l 37 -308 l 37 771 l 153 771 l 153 710 q 380 790 258 790 q 676 668 569 790 q 771 385 771 557 m 657 385 q 595 598 657 514 q 380 698 521 698 q 153 592 254 698 l 153 178 q 380 72 254 72 q 595 172 521 72 q 657 385 657 255 z "},"q":{"ha":926,"x_min":3,"x_max":736,"o":"m 736 -308 l 620 -308 l 620 61 q 393 -21 515 -21 q 98 101 205 -21 q 3 385 3 212 q 98 668 3 557 q 393 790 205 790 q 620 710 515 790 l 620 771 l 736 771 l 736 -308 m 620 178 l 620 592 q 393 698 520 698 q 179 598 253 698 q 117 385 117 514 q 179 172 117 255 q 393 72 253 72 q 620 178 520 72 z "},"r":{"ha":927,"x_min":4,"x_max":773,"o":"m 773 764 l 734 658 q 588 688 670 688 q 369 582 452 688 q 293 346 293 485 l 293 100 l 467 100 l 467 0 l 4 0 l 4 100 l 177 100 l 177 672 l 4 672 l 4 773 l 293 773 l 293 578 q 588 792 372 792 q 773 764 706 792 z "},"s":{"ha":927,"x_min":-10,"x_max":751,"o":"m 751 215 q 654 45 751 110 q 381 -21 553 -21 q 162 13 274 -21 q -10 91 57 44 l 42 189 q 381 71 207 71 q 636 211 636 71 q 476 318 636 293 q 181 369 245 350 q 20 566 20 420 q 114 721 20 658 q 381 790 215 790 q 710 699 580 790 l 664 611 q 381 697 561 697 q 207 663 274 697 q 136 566 136 628 q 295 458 136 485 q 592 408 513 428 q 751 215 751 356 z "},"t":{"ha":927,"x_min":4,"x_max":784,"o":"m 784 246 q 696 58 771 131 q 482 -20 614 -20 q 255 72 340 -20 q 177 284 177 157 l 177 672 l 4 672 l 4 771 l 177 771 l 177 1081 l 293 1081 l 293 771 l 619 771 l 619 672 l 293 672 l 293 284 q 338 146 293 202 q 482 81 390 81 q 622 141 571 81 q 670 273 667 194 l 784 246 z "},"u":{"ha":927,"x_min":40,"x_max":737,"o":"m 737 0 l 621 0 l 621 194 q 326 -19 540 -19 q 40 297 40 -19 l 40 773 l 157 773 l 157 297 q 326 90 157 90 q 543 191 461 90 q 621 427 621 287 l 621 773 l 737 773 l 737 0 z "},"v":{"ha":927,"x_min":0,"x_max":771,"o":"m 771 771 l 468 0 l 316 0 l 0 771 l 135 771 l 393 95 l 636 771 l 771 771 z "},"w":{"ha":927,"x_min":4,"x_max":773,"o":"m 773 773 l 633 1 l 500 1 l 389 567 l 277 1 l 144 1 l 4 773 l 124 773 l 223 154 l 332 766 l 444 766 l 553 154 l 653 773 l 773 773 z "},"x":{"ha":927,"x_min":-16,"x_max":792,"o":"m 792 0 l 473 0 l 473 100 l 540 100 l 389 332 l 237 100 l 301 100 l 301 0 l -16 0 l -16 100 l 105 100 l 317 391 l 114 672 l 3 672 l 3 771 l 321 771 l 321 672 l 247 672 l 389 452 l 532 672 l 455 672 l 455 771 l 771 771 l 771 672 l 665 672 l 461 391 l 673 100 l 792 100 l 792 0 z "},"y":{"ha":927,"x_min":-6,"x_max":765,"o":"m 765 771 l 396 -176 q 324 -261 376 -225 q 162 -308 256 -308 q 8 -280 91 -308 l 33 -164 q 170 -189 124 -189 q 273 -128 247 -189 l 317 -21 l -6 771 l 129 771 l 389 105 l 630 771 l 765 771 z "},"z":{"ha":927,"x_min":37,"x_max":732,"o":"m 732 0 l 37 0 l 37 100 l 558 672 l 138 672 l 138 465 l 37 465 l 37 771 l 713 771 l 713 672 l 192 100 l 631 100 l 631 306 l 732 306 l 732 0 z "},"{":{"ha":927,"x_min":157,"x_max":619,"o":"m 619 -308 l 542 -308 q 372 -240 437 -308 q 311 -76 311 -176 l 311 278 q 157 417 311 417 l 157 510 q 311 650 311 510 l 311 1004 q 374 1169 311 1102 q 542 1235 437 1235 l 619 1235 l 619 1143 l 542 1143 q 402 1004 402 1143 l 402 650 q 364 535 402 590 q 259 463 322 479 q 362 393 319 451 q 402 278 402 338 l 402 -76 q 542 -216 402 -216 l 619 -216 l 619 -308 z "},"|":{"ha":927,"x_min":330,"x_max":446,"o":"m 446 -155 l 330 -155 l 330 1235 l 446 1235 l 446 -155 z "},"}":{"ha":927,"x_min":154,"x_max":617,"o":"m 617 417 q 463 278 463 417 l 463 -76 q 400 -240 463 -176 q 231 -308 336 -308 l 154 -308 l 154 -216 l 231 -216 q 371 -76 371 -216 l 371 278 q 412 395 371 338 q 515 463 453 451 q 412 534 452 479 q 371 650 371 590 l 371 1004 q 231 1143 371 1143 l 154 1143 l 154 1235 l 231 1235 q 400 1169 336 1235 q 463 1004 463 1102 l 463 650 q 617 510 463 510 l 617 417 z "},"~":{"ha":927,"x_min":64,"x_max":701,"o":"m 701 1136 q 497 1006 625 1006 q 356 1064 418 1006 q 268 1102 317 1102 q 131 1011 184 1102 l 64 1051 q 268 1179 140 1179 q 409 1121 347 1179 q 497 1083 449 1083 q 635 1176 581 1083 l 701 1136 z "},"¤":{"ha":927,"x_min":0,"x_max":779,"o":"m 779 284 q 657 56 741 135 q 467 -19 577 -19 q 256 77 342 -19 q 138 370 165 179 l 0 370 l 0 462 l 129 462 q 126 540 126 500 q 129 617 126 580 l 0 617 l 0 708 l 138 708 q 256 1005 165 902 q 467 1101 342 1101 q 657 1027 577 1101 q 779 798 741 947 l 682 756 q 467 1000 626 1000 q 240 708 283 1000 l 463 708 l 463 617 l 231 617 q 230 540 230 581 q 231 462 230 500 l 463 462 l 463 370 l 241 370 q 467 82 284 82 q 682 326 626 82 l 779 284 z "},"‚":{"ha":927,"x_min":198,"x_max":506,"o":"m 506 306 l 279 -158 l 198 -158 l 354 306 l 506 306 z "},"ƒ":{"ha":924,"x_min":5,"x_max":771,"o":"m 771 1280 q 683 1285 723 1285 q 495 1225 551 1285 q 446 1064 446 1173 l 446 770 l 620 770 l 620 669 l 446 669 l 446 9 l 446 9 q 115 -307 446 -307 q 5 -299 63 -307 l 5 -206 q 93 -211 53 -211 q 283 -150 226 -211 q 331 9 331 -98 l 331 669 l 158 669 l 158 770 l 331 770 l 331 1064 l 331 1064 q 663 1381 331 1381 q 771 1372 713 1381 l 771 1280 z "},"„":{"ha":927,"x_min":45,"x_max":659,"o":"m 354 306 l 126 -158 l 45 -158 l 202 306 l 354 306 m 659 306 l 432 -158 l 350 -158 l 506 306 l 659 306 z "},"…":{"ha":924,"x_min":0,"x_max":769,"o":"m 769 1 l 616 1 l 616 152 l 769 152 l 769 1 m 461 1 l 308 1 l 308 152 l 461 152 l 461 1 m 153 1 l 0 1 l 0 152 l 153 152 l 153 1 z "},"†":{"ha":927,"x_min":155,"x_max":619,"o":"m 619 802 l 422 813 l 433 309 l 341 309 l 352 813 l 155 802 l 155 894 l 352 883 l 341 1081 l 433 1081 l 422 883 l 619 894 l 619 802 z "},"‡":{"ha":927,"x_min":155,"x_max":619,"o":"m 619 341 l 422 352 l 433 154 l 341 154 l 352 352 l 155 341 l 155 433 l 352 422 l 352 813 l 155 802 l 155 894 l 352 883 l 341 1081 l 433 1081 l 422 883 l 619 894 l 619 802 l 422 813 l 422 422 l 619 433 l 619 341 z "},"ˆ":{"ha":927,"x_min":141,"x_max":633,"o":"m 633 997 l 590 942 l 389 1111 l 184 941 l 141 995 l 388 1235 l 633 997 z "},"‰":{"ha":927,"x_min":-19,"x_max":926,"o":"m 316 891 q 266 743 316 804 q 148 682 217 682 q 30 743 80 682 q -19 891 -19 804 q 30 1039 -19 977 q 148 1100 80 1100 q 266 1039 217 1100 q 316 891 316 977 m 926 189 q 877 42 926 104 q 759 -19 828 -19 q 640 42 689 -19 q 591 189 591 104 q 640 338 591 277 q 759 399 689 399 q 877 338 828 399 q 926 189 926 277 m 551 1066 l 80 -24 l -5 16 l 471 1106 l 551 1066 m 576 189 q 527 42 576 104 q 409 -19 479 -19 q 290 42 340 -19 q 241 189 241 104 q 290 338 241 277 q 409 399 340 399 q 527 338 479 399 q 576 189 576 277 m 229 891 q 205 979 229 943 q 148 1015 182 1015 q 91 979 115 1015 q 67 891 67 943 q 91 803 67 840 q 148 766 115 766 q 205 803 182 766 q 229 891 229 840 m 840 189 q 816 278 840 241 q 759 314 792 314 q 701 278 725 314 q 678 189 678 241 q 701 101 678 138 q 759 64 725 64 q 816 101 792 64 q 840 189 840 138 m 490 189 q 466 278 490 241 q 409 314 442 314 q 352 278 375 314 q 328 189 328 241 q 352 101 328 138 q 409 64 375 64 q 466 101 442 64 q 490 189 490 138 z "},"Š":{"ha":927,"x_min":21,"x_max":745,"o":"m 633 1303 l 418 1096 q 562 1028 501 1082 q 619 927 619 977 l 619 1081 l 720 1081 l 720 773 l 619 773 q 544 932 619 865 q 369 1000 470 1000 q 212 948 271 1000 q 153 824 153 895 q 307 654 153 720 q 592 535 449 595 q 745 282 745 446 q 648 68 745 155 q 405 -19 552 -19 q 194 48 280 -19 q 121 157 125 104 l 121 0 l 21 0 l 21 327 l 121 327 q 196 162 121 235 q 405 81 278 81 q 582 153 525 81 q 621 271 621 203 q 470 468 621 396 q 188 583 328 527 q 35 823 35 667 q 117 1011 35 934 q 355 1100 207 1096 l 141 1306 l 184 1361 l 389 1191 l 590 1359 l 633 1303 z "},"‹":{"ha":927,"x_min":165,"x_max":500,"o":"m 500 335 l 436 269 l 165 540 l 436 813 l 500 747 l 295 540 l 500 335 z "},"Œ":{"ha":924,"x_min":-14,"x_max":771,"o":"m 771 0 l 398 0 l 398 136 q 229 -19 351 -19 q -14 540 -14 -19 q 229 1098 -14 1098 q 398 944 351 1098 l 398 1080 l 771 1080 l 771 980 l 467 980 l 467 601 l 697 601 l 697 501 l 467 501 l 467 101 l 771 101 l 771 0 m 352 540 q 328 876 352 771 q 229 999 301 999 q 128 876 157 999 q 102 540 102 770 q 128 205 102 309 q 229 81 157 81 q 328 205 301 81 q 352 540 352 308 z "},"Ž":{"ha":927,"x_min":43,"x_max":739,"o":"m 739 0 l 43 0 l 43 101 l 583 981 l 144 981 l 144 716 l 43 716 l 43 1081 l 374 1081 l 141 1306 l 184 1361 l 389 1191 l 590 1359 l 633 1303 l 402 1081 l 718 1081 l 718 981 l 179 101 l 638 101 l 638 366 l 739 366 l 739 0 z "},"‘":{"ha":924,"x_min":356,"x_max":619,"o":"m 619 616 l 356 616 l 356 795 q 423 995 356 917 q 619 1077 495 1077 l 619 981 q 452 795 452 981 l 452 766 l 619 766 l 619 616 z "},"’":{"ha":924,"x_min":309,"x_max":572,"o":"m 572 899 q 505 701 572 778 q 311 617 433 617 l 311 715 q 476 899 476 715 l 476 928 l 309 928 l 309 1078 l 572 1078 l 572 899 z "},"“":{"ha":924,"x_min":45,"x_max":771,"o":"m 771 616 l 508 616 l 508 795 q 578 997 508 917 q 770 1077 648 1077 l 770 981 q 604 795 604 981 l 604 766 l 771 766 l 771 616 m 309 616 l 45 616 l 45 795 q 116 997 45 917 q 308 1077 186 1077 l 308 981 q 143 795 143 981 l 143 766 l 309 766 l 309 616 z "},"”":{"ha":924,"x_min":1,"x_max":727,"o":"m 727 899 q 659 701 727 778 q 465 617 587 617 l 465 715 q 630 899 630 715 l 630 928 l 463 928 l 463 1078 l 727 1078 l 727 899 m 264 899 q 197 701 264 778 q 3 617 125 617 l 3 715 q 168 899 168 715 l 168 928 l 1 928 l 1 1078 l 264 1078 l 264 899 z "},"•":{"ha":927,"x_min":154,"x_max":771,"o":"m 771 617 q 681 398 771 489 q 463 308 591 308 q 245 398 336 308 q 154 617 154 489 q 245 835 154 745 q 463 926 336 926 q 681 835 591 926 q 771 617 771 745 z "},"–":{"ha":924,"x_min":0,"x_max":770,"o":"m 770 495 l 770 586 l 0 586 l 0 495 l 770 495 z "},"—":{"ha":924,"x_min":0,"x_max":924,"o":"m 924 495 l 0 495 l 0 586 l 924 586 l 924 495 z "},"˜":{"ha":927,"x_min":64,"x_max":701,"o":"m 701 1136 q 497 1006 625 1006 q 356 1064 418 1006 q 268 1102 317 1102 q 131 1011 184 1102 l 64 1051 q 268 1179 140 1179 q 409 1121 347 1179 q 497 1083 449 1083 q 635 1176 581 1083 l 701 1136 z "},"™":{"ha":928,"x_min":0,"x_max":928,"o":"m 928 771 l 836 771 l 836 1097 l 729 822 l 664 822 l 557 1097 l 557 771 l 465 771 l 465 1235 l 596 1235 l 696 965 l 797 1235 l 928 1235 l 928 771 m 385 1143 l 239 1143 l 239 771 l 146 771 l 146 1143 l 0 1143 l 0 1235 l 385 1235 l 385 1143 z "},"š":{"ha":927,"x_min":-10,"x_max":751,"o":"m 751 215 q 654 45 751 110 q 381 -21 553 -21 q 162 13 274 -21 q -10 91 57 44 l 42 189 q 381 71 207 71 q 636 211 636 71 q 476 318 636 293 q 181 369 189 365 q 20 566 20 420 q 114 721 20 658 q 381 790 215 790 q 710 699 580 790 l 664 611 q 381 697 561 697 q 207 663 274 697 q 136 566 136 628 q 295 458 136 485 q 592 408 587 409 q 751 215 751 356 m 633 1177 l 388 941 l 385 944 l 141 1179 l 184 1235 l 389 1064 l 590 1232 l 633 1177 z "},"›":{"ha":927,"x_min":271,"x_max":607,"o":"m 607 540 l 337 269 l 271 333 l 477 540 l 271 746 l 337 812 l 607 540 z "},"œ":{"ha":924,"x_min":-32,"x_max":790,"o":"m 790 347 l 436 347 q 564 73 436 73 q 682 189 659 73 l 775 160 q 564 -20 718 -20 q 376 149 418 -20 q 201 -20 340 -20 q -32 386 -32 -20 q 201 792 -32 792 q 375 631 337 792 q 554 792 412 792 q 751 649 696 792 q 790 347 790 549 m 668 448 q 654 621 668 573 q 554 698 630 698 q 456 621 482 698 q 437 448 437 567 l 668 448 m 317 386 q 201 698 317 698 q 83 386 83 698 q 201 73 83 73 q 317 386 317 73 z "},"ž":{"ha":927,"x_min":37,"x_max":732,"o":"m 633 1177 l 388 941 l 385 944 l 141 1179 l 184 1235 l 389 1064 l 590 1232 l 633 1177 m 732 0 l 37 0 l 37 100 l 558 672 l 138 672 l 138 465 l 37 465 l 37 771 l 713 771 l 713 672 l 192 100 l 631 100 l 631 306 l 732 306 l 732 0 z "},"Ÿ":{"ha":927,"x_min":-15,"x_max":792,"o":"m 792 981 l 703 981 l 447 467 l 447 101 l 620 101 l 620 1 l 157 1 l 157 101 l 331 101 l 331 467 l 74 981 l -15 981 l -15 1082 l 293 1082 l 293 981 l 201 981 l 388 590 l 390 590 l 576 981 l 485 981 l 485 1082 l 792 1082 l 792 981 m 617 1234 l 463 1234 l 463 1389 l 617 1389 l 617 1234 m 309 1234 l 154 1234 l 154 1389 l 309 1389 l 309 1234 z "}," ":{"ha":927,"x_min":0,"x_max":0,"o":""},"¡":{"ha":924,"x_min":465,"x_max":620,"o":"m 620 924 l 468 924 l 468 1074 l 620 1074 l 620 924 m 616 0 l 465 0 l 506 770 l 573 770 l 616 0 z "},"¢":{"ha":927,"x_min":8,"x_max":750,"o":"m 750 299 q 448 134 653 146 l 448 -1 l 332 -1 l 332 140 q 90 282 178 165 q 8 539 8 390 q 90 798 8 689 q 332 939 178 914 l 332 1078 l 448 1078 l 448 944 q 750 779 653 932 l 670 725 q 448 851 607 836 l 448 227 q 670 355 607 242 l 750 299 m 332 236 l 332 842 q 173 726 229 817 q 122 539 122 645 q 173 354 122 434 q 332 236 229 263 z "},"£":{"ha":927,"x_min":23,"x_max":792,"o":"m 792 232 q 617 52 735 111 q 385 0 516 0 l 23 0 l 23 797 l 23 797 q 110 1008 23 927 q 332 1088 197 1088 q 513 1033 437 1088 q 609 879 590 979 l 506 856 q 332 992 475 992 q 189 941 239 992 q 139 797 139 889 l 139 592 l 465 592 l 465 492 l 139 492 l 139 100 l 385 100 q 703 282 610 100 l 792 232 z "},"¥":{"ha":927,"x_min":3,"x_max":773,"o":"m 773 337 l 446 337 l 446 0 l 331 0 l 331 337 l 3 337 l 3 438 l 331 438 l 331 466 l 241 645 l 3 645 l 3 745 l 191 745 l 24 1080 l 152 1080 l 388 587 l 389 587 l 625 1080 l 751 1080 l 586 745 l 773 745 l 773 645 l 535 645 l 446 466 l 446 438 l 773 438 l 773 337 z "},"¦":{"ha":927,"x_min":330,"x_max":446,"o":"m 446 -155 l 330 -155 l 330 477 l 446 477 l 446 -155 m 446 602 l 330 602 l 330 1235 l 446 1235 l 446 602 z "},"§":{"ha":927,"x_min":18,"x_max":764,"o":"m 764 145 q 667 -68 764 20 q 424 -155 571 -155 q 143 -66 253 -155 q 18 148 43 16 l 126 176 q 424 -54 178 -54 q 601 16 544 -54 q 640 135 640 68 q 489 332 640 261 q 207 448 348 390 q 56 687 56 532 q 165 899 56 819 q 56 1112 56 979 q 141 1304 56 1226 q 388 1389 234 1389 q 646 1301 544 1389 q 756 1093 744 1218 l 639 1073 q 388 1289 610 1289 q 230 1235 292 1289 q 173 1114 173 1184 q 326 943 173 1009 q 611 824 468 884 q 764 569 764 734 q 668 359 764 446 q 764 145 764 277 m 640 561 q 583 696 640 641 q 446 777 539 739 q 278 840 361 808 q 173 689 173 790 q 309 525 173 588 q 576 419 443 472 q 640 561 640 472 z "},"¨":{"ha":927,"x_min":154,"x_max":617,"o":"m 617 926 l 463 926 l 463 1080 l 617 1080 l 617 926 m 309 926 l 154 926 l 154 1080 l 309 1080 l 309 926 z "},"©":{"ha":929,"x_min":3,"x_max":929,"o":"m 929 770 q 794 443 929 578 q 466 307 658 307 q 138 443 274 307 q 3 770 3 578 q 138 1098 3 962 q 466 1234 274 1234 q 794 1098 658 1234 q 929 770 929 962 m 875 770 q 755 1059 875 939 q 466 1179 635 1179 q 177 1059 297 1179 q 57 770 57 939 q 177 481 57 601 q 466 361 297 361 q 755 481 635 361 q 875 770 875 601 m 717 595 q 468 472 639 472 q 245 563 328 472 q 168 773 168 646 q 245 981 168 898 q 468 1072 328 1072 q 717 949 639 1072 l 629 891 q 468 975 583 975 q 330 910 379 975 q 287 773 287 854 q 330 634 287 691 q 468 569 379 569 q 629 653 583 569 l 717 595 z "},"ª":{"ha":924,"x_min":153,"x_max":770,"o":"m 770 216 l 154 216 l 154 308 l 770 308 l 770 216 m 740 461 l 648 461 l 648 716 q 569 538 629 617 q 410 444 499 444 q 213 538 283 444 q 153 754 153 621 l 153 754 q 235 994 153 899 q 466 1093 322 1093 q 648 1028 563 1093 l 648 1078 l 740 1078 l 740 461 m 648 934 q 466 1019 567 1019 q 298 937 359 1019 q 245 754 245 865 q 280 602 245 662 q 410 532 324 532 q 586 662 514 532 q 648 886 648 773 l 648 934 z "},"«":{"ha":927,"x_min":11,"x_max":654,"o":"m 654 335 l 590 269 l 319 540 l 590 813 l 654 747 l 449 540 l 654 335 m 346 335 l 280 269 l 11 540 l 280 813 l 346 747 l 140 540 l 346 335 z "},"¬":{"ha":924,"x_min":0,"x_max":770,"o":"m 770 155 l 679 155 l 679 527 l 0 527 l 0 619 l 770 619 l 770 155 z "},"­":{"ha":927,"x_min":154,"x_max":617,"o":"m 617 495 l 154 495 l 154 587 l 617 587 l 617 495 z "},"®":{"ha":929,"x_min":3,"x_max":929,"o":"m 929 770 q 794 443 929 578 q 466 307 658 307 q 138 443 274 307 q 3 770 3 578 q 138 1098 3 962 q 466 1234 274 1234 q 794 1098 658 1234 q 929 770 929 962 m 875 770 q 755 1059 875 939 q 466 1179 635 1179 q 177 1059 297 1179 q 57 770 57 939 q 177 481 57 601 q 466 361 297 361 q 755 481 635 361 q 875 770 875 601 m 720 492 l 564 492 l 420 693 l 393 693 l 393 492 l 274 492 l 274 1052 l 495 1052 q 636 1013 576 1052 q 710 872 710 963 q 658 747 710 798 q 551 697 611 703 l 720 492 m 592 872 q 540 951 592 932 q 437 962 511 962 l 393 962 l 393 784 l 437 784 q 540 795 511 784 q 592 872 592 813 z "},"¯":{"ha":927,"x_min":154,"x_max":617,"o":"m 617 987 l 154 987 l 154 1081 l 617 1081 l 617 987 z "},"°":{"ha":927,"x_min":154,"x_max":771,"o":"m 771 927 q 681 708 771 798 q 463 617 591 617 q 245 708 336 617 q 154 927 154 798 q 245 1145 154 1054 q 463 1235 336 1235 q 681 1145 591 1235 q 771 927 771 1054 m 696 927 q 628 1091 696 1023 q 463 1159 559 1159 q 299 1091 367 1159 q 231 927 231 1023 q 299 763 231 831 q 463 694 367 694 q 628 763 559 694 q 696 927 696 831 z "},"±":{"ha":927,"x_min":0,"x_max":771,"o":"m 771 495 l 432 495 l 432 154 l 340 154 l 340 495 l 0 495 l 0 586 l 340 586 l 340 927 l 432 927 l 432 586 l 771 586 l 771 495 m 771 0 l 0 0 l 0 92 l 771 92 l 771 0 z "},"²":{"ha":927,"x_min":25,"x_max":311,"o":"m 311 973 q 288 904 311 936 q 236 851 277 888 q 141 761 206 821 l 242 761 l 242 811 l 309 811 l 309 699 l 34 699 l 34 753 q 205 914 92 807 q 237 975 237 947 q 218 1010 237 996 q 172 1024 198 1024 q 95 929 95 1024 l 25 929 q 172 1085 25 1085 q 265 1057 226 1085 q 311 973 311 1027 z "},"³":{"ha":927,"x_min":18,"x_max":311,"o":"m 311 811 q 271 729 311 764 q 172 693 232 693 q 18 828 33 693 l 88 838 q 172 755 97 755 q 218 772 199 755 q 237 811 237 789 q 216 856 237 846 q 159 862 202 862 l 159 929 q 231 975 231 929 q 172 1023 231 1023 q 95 939 95 1023 l 25 939 q 68 1051 25 1013 q 172 1085 107 1085 q 268 1053 232 1085 q 303 973 303 1021 q 260 899 303 924 q 311 811 311 865 z "},"´":{"ha":927,"x_min":199,"x_max":588,"o":"m 588 1143 l 231 941 l 199 995 l 534 1232 l 588 1143 z "},"µ":{"ha":926,"x_min":39,"x_max":735,"o":"m 735 0 l 620 0 l 620 194 q 323 -19 539 -19 q 155 27 222 -19 l 155 -308 l 39 -308 l 39 773 l 155 773 l 155 297 q 323 91 155 91 q 542 192 458 91 q 620 427 620 287 l 620 773 l 735 773 l 735 0 z "},"¶":{"ha":927,"x_min":25,"x_max":754,"o":"m 754 0 l 639 0 l 639 462 l 446 462 l 446 0 l 331 0 l 331 468 q 25 771 25 503 q 439 1080 25 1080 l 754 1080 l 754 0 m 639 563 l 639 980 l 446 980 l 446 563 l 639 563 m 331 572 l 331 971 q 141 771 141 939 q 331 572 141 604 z "},"·":{"ha":927,"x_min":309,"x_max":461,"o":"m 461 297 l 309 297 l 309 447 l 461 447 l 461 297 z "},"¸":{"ha":927,"x_min":201,"x_max":463,"o":"m 463 -35 q 395 -230 463 -157 q 201 -308 324 -308 l 201 -212 q 367 -35 367 -212 l 367 0 l 463 0 l 463 -35 z "},"¹":{"ha":927,"x_min":68,"x_max":263,"o":"m 263 703 l 68 703 l 68 764 l 129 764 l 129 961 q 68 952 111 952 l 68 1019 q 116 1032 104 1019 q 129 1081 129 1045 l 202 1081 l 202 764 l 263 764 l 263 703 z "},"º":{"ha":924,"x_min":143,"x_max":793,"o":"m 793 770 q 710 544 793 635 q 468 446 620 446 q 226 544 316 446 q 143 770 143 635 q 226 997 143 907 q 468 1096 316 1096 q 710 997 620 1096 q 793 770 793 907 m 770 218 l 154 218 l 154 309 l 770 309 l 770 218 m 701 770 q 645 942 701 872 q 468 1021 582 1021 q 290 942 355 1021 q 235 770 235 872 q 290 600 235 669 q 468 520 355 520 q 645 600 582 520 q 701 770 701 669 z "},"»":{"ha":927,"x_min":117,"x_max":761,"o":"m 761 540 l 491 269 l 427 333 l 631 540 l 427 746 l 491 812 l 761 540 m 452 540 l 183 269 l 117 333 l 323 540 l 117 746 l 183 812 l 452 540 z "},"¼":{"ha":927,"x_min":3,"x_max":779,"o":"m 263 703 l 68 703 l 68 764 l 129 764 l 129 961 q 68 952 111 952 l 68 1019 q 116 1032 104 1019 q 129 1081 129 1045 l 202 1081 l 202 764 l 263 764 l 263 703 m 773 1054 l 80 -24 l 3 27 l 696 1106 l 773 1054 m 779 0 l 586 0 l 586 62 l 646 62 l 646 102 l 479 102 l 479 153 l 643 379 l 718 379 l 718 163 l 779 163 l 779 102 l 718 102 l 718 62 l 779 62 l 779 0 m 646 163 l 646 271 l 567 163 l 646 163 z "},"½":{"ha":927,"x_min":3,"x_max":780,"o":"m 263 703 l 68 703 l 68 764 l 129 764 l 129 961 q 68 952 111 952 l 68 1019 q 116 1032 104 1019 q 129 1081 129 1045 l 202 1081 l 202 764 l 263 764 l 263 703 m 773 1054 l 80 -24 l 3 27 l 696 1106 l 773 1054 m 780 274 q 759 205 780 236 q 707 152 747 188 q 612 62 676 121 l 713 62 l 713 111 l 779 111 l 779 0 l 505 0 l 505 53 q 676 215 563 107 q 708 274 708 247 q 689 309 708 295 q 641 323 669 323 q 566 230 566 323 l 496 230 q 641 385 496 385 q 736 357 697 385 q 780 274 780 326 z "},"¾":{"ha":927,"x_min":3,"x_max":779,"o":"m 311 811 q 271 729 311 764 q 172 693 232 693 q 18 828 33 693 l 88 838 q 172 755 97 755 q 218 772 199 755 q 237 811 237 789 q 216 856 237 846 q 159 862 202 862 l 159 929 q 231 975 231 929 q 172 1023 231 1023 q 95 939 95 1023 l 25 939 q 68 1051 25 1013 q 172 1085 107 1085 q 268 1053 232 1085 q 303 973 303 1021 q 260 899 303 924 q 311 811 311 865 m 773 1054 l 80 -24 l 3 27 l 696 1106 l 773 1054 m 779 0 l 586 0 l 586 62 l 646 62 l 646 102 l 479 102 l 479 153 l 643 379 l 718 379 l 718 163 l 779 163 l 779 102 l 718 102 l 718 62 l 779 62 l 779 0 m 646 163 l 646 271 l 567 163 l 646 163 z "},"¿":{"ha":924,"x_min":172,"x_max":785,"o":"m 616 928 l 465 928 l 465 1078 l 616 1078 l 616 928 m 785 280 q 674 45 768 122 q 473 -19 595 -19 q 252 54 332 -19 q 172 249 172 126 q 255 444 172 354 q 410 590 332 516 q 494 777 494 678 l 615 777 q 530 563 615 664 q 374 408 452 485 q 289 246 289 322 q 473 81 289 81 q 610 133 556 81 q 677 308 672 193 l 785 280 z "},"À":{"ha":927,"x_min":-51,"x_max":824,"o":"m 824 0 l 702 0 l 601 309 l 173 309 l 73 0 l -51 0 l 311 1080 l 465 1080 l 824 0 m 568 409 l 388 965 l 206 409 l 568 409 m 573 1152 l 540 1096 l 183 1299 l 237 1388 l 573 1152 z "},"Á":{"ha":927,"x_min":-51,"x_max":824,"o":"m 824 0 l 702 0 l 601 309 l 173 309 l 73 0 l -51 0 l 311 1080 l 465 1080 l 824 0 m 568 409 l 388 965 l 206 409 l 568 409 m 588 1298 l 231 1095 l 199 1150 l 534 1386 l 588 1298 z "},"Â":{"ha":927,"x_min":-51,"x_max":824,"o":"m 824 0 l 702 0 l 601 309 l 173 309 l 73 0 l -51 0 l 311 1080 l 465 1080 l 824 0 m 568 409 l 388 965 l 206 409 l 568 409 m 633 1148 l 590 1093 l 389 1261 l 184 1091 l 141 1146 l 388 1385 l 633 1148 z "},"Ã":{"ha":927,"x_min":-51,"x_max":824,"o":"m 824 0 l 702 0 l 601 309 l 173 309 l 73 0 l -51 0 l 311 1080 l 465 1080 l 824 0 m 568 409 l 388 965 l 206 409 l 568 409 m 701 1282 q 497 1152 625 1152 q 356 1210 418 1152 q 268 1247 317 1247 q 131 1157 184 1247 l 64 1196 q 268 1324 140 1324 q 409 1266 347 1324 q 497 1230 449 1230 q 635 1321 581 1230 l 701 1282 z "},"Ä":{"ha":927,"x_min":-51,"x_max":824,"o":"m 824 0 l 702 0 l 601 309 l 173 309 l 73 0 l -51 0 l 311 1080 l 465 1080 l 824 0 m 568 409 l 388 965 l 206 409 l 568 409 m 617 1234 l 463 1234 l 463 1389 l 617 1389 l 617 1234 m 309 1234 l 154 1234 l 154 1389 l 309 1389 l 309 1234 z "},"Å":{"ha":927,"x_min":-51,"x_max":824,"o":"m 824 0 l 702 0 l 601 309 l 173 309 l 73 0 l -51 0 l 295 1034 q 199 1197 199 1087 q 254 1329 199 1274 q 386 1384 309 1384 q 519 1329 465 1384 q 573 1197 573 1274 q 480 1034 573 1088 l 824 0 m 499 1197 q 466 1277 499 1244 q 386 1309 433 1309 q 307 1277 340 1309 q 274 1197 274 1244 q 307 1117 274 1150 q 386 1085 340 1085 q 466 1117 433 1085 q 499 1197 499 1150 m 568 409 l 388 965 l 206 409 l 568 409 z "},"Æ":{"ha":927,"x_min":-54,"x_max":773,"o":"m 773 0 l 352 0 l 352 309 l 160 309 l 68 0 l -54 0 l 275 1081 l 773 1081 l 773 981 l 468 981 l 468 602 l 698 602 l 698 503 l 468 503 l 468 101 l 773 101 l 773 0 m 352 409 l 352 956 l 191 409 l 352 409 z "},"Ç":{"ha":927,"x_min":-15,"x_max":779,"o":"m 779 285 q 463 -14 698 23 l 463 -37 q 394 -232 463 -157 q 201 -308 324 -308 l 201 -212 q 367 -37 367 -212 l 367 -16 q 95 133 196 -4 q -15 542 -15 280 q 105 963 -15 816 q 399 1101 215 1101 q 669 956 598 1101 l 669 1082 l 770 1082 l 770 726 l 669 726 q 585 929 669 851 q 399 1000 508 1000 q 178 879 256 1000 q 100 542 100 758 q 178 204 100 326 q 399 82 256 82 q 672 327 605 82 l 779 285 z "},"È":{"ha":927,"x_min":38,"x_max":732,"o":"m 732 0 l 38 0 l 38 1081 l 732 1081 l 732 981 l 153 981 l 153 602 l 580 602 l 580 501 l 153 501 l 153 101 l 732 101 l 732 0 m 573 1150 l 540 1096 l 183 1298 l 237 1388 l 573 1150 z "},"É":{"ha":927,"x_min":38,"x_max":732,"o":"m 732 0 l 38 0 l 38 1081 l 732 1081 l 732 981 l 153 981 l 153 602 l 580 602 l 580 501 l 153 501 l 153 101 l 732 101 l 732 0 m 588 1298 l 231 1095 l 199 1150 l 534 1386 l 588 1298 z "},"Ê":{"ha":927,"x_min":38,"x_max":732,"o":"m 732 0 l 38 0 l 38 1081 l 732 1081 l 732 981 l 153 981 l 153 602 l 580 602 l 580 501 l 153 501 l 153 101 l 732 101 l 732 0 m 633 1148 l 590 1093 l 389 1261 l 184 1091 l 141 1146 l 388 1385 l 633 1148 z "},"Ë":{"ha":927,"x_min":38,"x_max":732,"o":"m 732 0 l 38 0 l 38 1081 l 732 1081 l 732 981 l 153 981 l 153 602 l 580 602 l 580 501 l 153 501 l 153 101 l 732 101 l 732 0 m 617 1234 l 463 1234 l 463 1389 l 617 1389 l 617 1234 m 309 1234 l 154 1234 l 154 1389 l 309 1389 l 309 1234 z "},"Ì":{"ha":927,"x_min":154,"x_max":617,"o":"m 617 0 l 154 0 l 154 101 l 328 101 l 328 981 l 154 981 l 154 1081 l 617 1081 l 617 981 l 443 981 l 443 101 l 617 101 l 617 0 m 573 1150 l 540 1096 l 183 1298 l 237 1388 l 573 1150 z "},"Í":{"ha":927,"x_min":154,"x_max":617,"o":"m 617 0 l 154 0 l 154 101 l 328 101 l 328 981 l 154 981 l 154 1081 l 617 1081 l 617 981 l 443 981 l 443 101 l 617 101 l 617 0 m 588 1298 l 231 1095 l 199 1150 l 534 1386 l 588 1298 z "},"Î":{"ha":927,"x_min":141,"x_max":633,"o":"m 617 0 l 154 0 l 154 101 l 328 101 l 328 981 l 154 981 l 154 1081 l 617 1081 l 617 981 l 443 981 l 443 101 l 617 101 l 617 0 m 633 1148 l 590 1093 l 389 1261 l 184 1091 l 141 1146 l 388 1385 l 633 1148 z "},"Ï":{"ha":927,"x_min":154,"x_max":617,"o":"m 617 0 l 154 0 l 154 101 l 328 101 l 328 981 l 154 981 l 154 1081 l 617 1081 l 617 981 l 443 981 l 443 101 l 617 101 l 617 0 m 617 1234 l 463 1234 l 463 1389 l 617 1389 l 617 1234 m 309 1234 l 154 1234 l 154 1389 l 309 1389 l 309 1234 z "},"Ð":{"ha":927,"x_min":-98,"x_max":808,"o":"m 808 540 q 684 128 808 270 q 393 0 573 0 l 40 0 l 40 495 l -98 495 l -98 587 l 40 587 l 40 1081 l 393 1081 q 684 953 573 1081 q 808 540 808 811 m 692 540 q 612 866 692 751 q 393 981 533 981 l 155 981 l 155 587 l 365 587 l 365 495 l 155 495 l 155 101 l 393 101 q 612 215 533 101 q 692 540 692 330 z "},"Ñ":{"ha":927,"x_min":38,"x_max":732,"o":"m 732 0 l 590 0 l 153 914 l 153 0 l 38 0 l 38 1081 l 199 1081 l 616 208 l 616 1081 l 732 1081 l 732 0 m 701 1282 q 497 1152 625 1152 q 356 1210 418 1152 q 268 1247 317 1247 q 131 1157 184 1247 l 64 1196 q 268 1324 140 1324 q 409 1266 347 1324 q 497 1230 449 1230 q 635 1321 581 1230 l 701 1282 z "},"Ò":{"ha":927,"x_min":-29,"x_max":802,"o":"m 802 540 q 682 117 802 266 q 386 -19 571 -19 q 92 117 202 -19 q -29 540 -29 266 q 92 963 -29 814 q 386 1100 202 1100 q 682 963 571 1100 q 802 540 802 814 m 686 540 q 608 878 686 756 q 386 1000 530 1000 q 165 878 244 1000 q 87 540 87 756 q 164 205 87 324 q 386 81 244 81 q 609 205 530 81 q 686 540 686 324 m 573 1150 l 540 1096 l 183 1298 l 237 1388 l 573 1150 z "},"Ó":{"ha":927,"x_min":-29,"x_max":802,"o":"m 802 540 q 682 117 802 266 q 386 -19 571 -19 q 92 117 202 -19 q -29 540 -29 266 q 92 963 -29 814 q 386 1100 202 1100 q 682 963 571 1100 q 802 540 802 814 m 686 540 q 608 878 686 756 q 386 1000 530 1000 q 165 878 244 1000 q 87 540 87 756 q 164 205 87 324 q 386 81 244 81 q 609 205 530 81 q 686 540 686 324 m 588 1298 l 231 1095 l 199 1150 l 534 1386 l 588 1298 z "},"Ô":{"ha":927,"x_min":-29,"x_max":802,"o":"m 802 540 q 682 117 802 266 q 386 -19 571 -19 q 92 117 202 -19 q -29 540 -29 266 q 92 963 -29 814 q 386 1100 202 1100 q 682 963 571 1100 q 802 540 802 814 m 686 540 q 608 878 686 756 q 386 1000 530 1000 q 165 878 244 1000 q 87 540 87 756 q 164 205 87 324 q 386 81 244 81 q 609 205 530 81 q 686 540 686 324 m 633 1148 l 590 1093 l 389 1261 l 184 1091 l 141 1146 l 388 1385 l 633 1148 z "},"Õ":{"ha":927,"x_min":-29,"x_max":802,"o":"m 802 540 q 682 117 802 266 q 386 -19 571 -19 q 92 117 202 -19 q -29 540 -29 266 q 92 963 -29 814 q 386 1100 202 1100 q 682 963 571 1100 q 802 540 802 814 m 686 540 q 608 878 686 756 q 386 1000 530 1000 q 165 878 244 1000 q 87 540 87 756 q 164 205 87 324 q 386 81 244 81 q 609 205 530 81 q 686 540 686 324 m 701 1282 q 497 1152 625 1152 q 356 1210 418 1152 q 268 1247 317 1247 q 131 1157 184 1247 l 64 1196 q 268 1324 140 1324 q 409 1266 347 1324 q 497 1230 449 1230 q 635 1321 581 1230 l 701 1282 z "},"Ö":{"ha":927,"x_min":-29,"x_max":802,"o":"m 802 540 q 682 117 802 266 q 386 -19 571 -19 q 92 117 202 -19 q -29 540 -29 266 q 92 963 -29 814 q 386 1100 202 1100 q 682 963 571 1100 q 802 540 802 814 m 686 540 q 608 878 686 756 q 386 1000 530 1000 q 165 878 244 1000 q 87 540 87 756 q 164 205 87 324 q 386 81 244 81 q 609 205 530 81 q 686 540 686 324 m 617 1234 l 463 1234 l 463 1389 l 617 1389 l 617 1234 m 309 1234 l 154 1234 l 154 1389 l 309 1389 l 309 1234 z "},"×":{"ha":927,"x_min":81,"x_max":692,"o":"m 692 780 l 451 539 l 692 299 l 626 235 l 386 475 l 145 235 l 81 299 l 321 539 l 81 780 l 145 845 l 386 605 l 626 845 l 692 780 z "},"Ø":{"ha":927,"x_min":-38,"x_max":811,"o":"m 811 1058 l 811 926 l 745 856 q 802 542 802 725 q 682 119 802 268 q 386 -19 571 -19 q 74 143 186 -19 l -38 24 l -38 157 l 28 226 q -29 542 -29 357 q 92 963 -29 816 q 386 1101 202 1101 q 698 939 587 1101 l 811 1058 m 620 855 q 386 1000 540 1000 q 165 879 244 1000 q 87 542 87 758 q 116 319 87 420 l 620 855 m 686 542 q 657 763 686 663 l 153 227 q 386 82 232 82 q 608 204 530 82 q 686 542 686 326 z "},"Ù":{"ha":927,"x_min":30,"x_max":744,"o":"m 744 458 q 386 -19 744 -19 q 30 458 30 -19 l 30 1081 l 145 1081 l 145 458 q 194 182 145 269 q 386 81 250 81 q 580 182 524 81 q 628 458 628 269 l 628 1081 l 744 1081 l 744 458 m 573 1150 l 540 1096 l 183 1298 l 237 1388 l 573 1150 z "},"Ú":{"ha":927,"x_min":30,"x_max":744,"o":"m 744 458 q 386 -19 744 -19 q 30 458 30 -19 l 30 1081 l 145 1081 l 145 458 q 194 182 145 269 q 386 81 250 81 q 580 182 524 81 q 628 458 628 269 l 628 1081 l 744 1081 l 744 458 m 588 1298 l 231 1095 l 199 1150 l 534 1386 l 588 1298 z "},"Û":{"ha":927,"x_min":30,"x_max":744,"o":"m 744 458 q 386 -19 744 -19 q 30 458 30 -19 l 30 1081 l 145 1081 l 145 458 q 194 182 145 269 q 386 81 250 81 q 580 182 524 81 q 628 458 628 269 l 628 1081 l 744 1081 l 744 458 m 633 1148 l 590 1093 l 389 1261 l 184 1091 l 141 1146 l 388 1385 l 633 1148 z "},"Ü":{"ha":927,"x_min":30,"x_max":744,"o":"m 744 458 q 386 -19 744 -19 q 30 458 30 -19 l 30 1081 l 145 1081 l 145 458 q 194 182 145 269 q 386 81 250 81 q 580 182 524 81 q 628 458 628 269 l 628 1081 l 744 1081 l 744 458 m 617 1234 l 463 1234 l 463 1389 l 617 1389 l 617 1234 m 309 1234 l 154 1234 l 154 1389 l 309 1389 l 309 1234 z "},"Ý":{"ha":927,"x_min":-15,"x_max":792,"o":"m 588 1298 l 231 1095 l 199 1150 l 534 1386 l 588 1298 m 792 981 l 703 981 l 447 467 l 447 101 l 620 101 l 620 1 l 157 1 l 157 101 l 331 101 l 331 467 l 74 981 l -15 981 l -15 1082 l 293 1082 l 293 981 l 201 981 l 388 590 l 390 590 l 576 981 l 485 981 l 485 1082 l 792 1082 l 792 981 z "},"Þ":{"ha":927,"x_min":33,"x_max":763,"o":"m 763 597 q 348 288 763 288 l 149 288 l 149 0 l 33 0 l 33 1136 l 149 1136 l 149 907 l 348 907 q 763 597 763 907 m 646 597 q 348 806 646 806 l 149 806 l 149 389 l 348 389 q 646 597 646 389 z "},"ß":{"ha":927,"x_min":18,"x_max":803,"o":"m 803 259 q 718 57 803 135 q 509 -20 634 -20 q 384 3 438 -20 q 277 71 337 21 l 341 158 q 509 77 429 77 q 640 126 592 77 q 687 259 687 174 q 631 379 687 322 q 527 476 578 427 q 471 625 471 540 q 513 753 471 698 q 591 836 552 794 q 634 937 634 883 q 585 1069 634 1021 q 451 1116 535 1116 q 134 715 133 1116 l 134 715 l 134 -157 l 18 -157 l 18 715 q 122 1064 18 933 q 451 1210 237 1210 q 660 1138 577 1210 q 750 937 750 1062 q 707 812 750 869 q 629 726 668 769 q 587 625 587 677 q 643 520 587 574 q 746 419 742 424 q 803 259 803 348 z "},"à":{"ha":927,"x_min":1,"x_max":736,"o":"m 393 792 q 620 710 515 792 l 620 773 l 736 773 l 736 0 l 620 0 l 620 318 q 523 97 598 196 q 323 -21 434 -21 q 78 96 164 -21 q 1 366 1 201 q 105 667 1 548 q 393 792 213 792 m 620 592 q 393 698 520 698 q 184 596 259 698 q 117 366 117 505 q 162 177 117 251 q 323 87 216 87 q 544 250 453 87 q 620 532 620 389 l 620 592 m 573 995 l 540 941 l 183 1143 l 237 1232 l 573 995 z "},"á":{"ha":927,"x_min":1,"x_max":736,"o":"m 393 792 q 620 710 515 792 l 620 773 l 736 773 l 736 0 l 620 0 l 620 318 q 523 97 598 196 q 323 -21 434 -21 q 78 96 164 -21 q 1 366 1 201 q 105 667 1 548 q 393 792 213 792 m 620 592 q 393 698 520 698 q 184 596 259 698 q 117 366 117 505 q 162 177 117 251 q 323 87 216 87 q 544 250 453 87 q 620 532 620 389 l 620 592 m 588 1143 l 231 941 l 199 995 l 534 1232 l 588 1143 z "},"â":{"ha":927,"x_min":1,"x_max":736,"o":"m 393 792 q 620 710 515 792 l 620 773 l 736 773 l 736 0 l 620 0 l 620 318 q 523 97 598 196 q 323 -21 434 -21 q 78 96 164 -21 q 1 366 1 201 q 105 667 1 548 q 393 792 213 792 m 620 592 q 393 698 520 698 q 184 596 259 698 q 117 366 117 505 q 162 177 117 251 q 323 87 216 87 q 544 250 453 87 q 620 532 620 389 l 620 592 m 633 997 l 590 942 l 389 1111 l 184 941 l 141 995 l 388 1235 l 633 997 z "},"ã":{"ha":927,"x_min":1,"x_max":736,"o":"m 393 792 q 620 710 515 792 l 620 773 l 736 773 l 736 0 l 620 0 l 620 318 q 523 97 598 196 q 323 -21 434 -21 q 78 96 164 -21 q 1 366 1 201 q 105 667 1 548 q 393 792 213 792 m 620 592 q 393 698 520 698 q 184 596 259 698 q 117 366 117 505 q 162 177 117 251 q 323 87 216 87 q 544 250 453 87 q 620 532 620 389 l 620 592 m 701 1136 q 497 1006 625 1006 q 356 1064 418 1006 q 268 1102 317 1102 q 131 1011 184 1102 l 64 1051 q 268 1179 140 1179 q 409 1121 347 1179 q 497 1083 449 1083 q 635 1176 581 1083 l 701 1136 z "},"ä":{"ha":927,"x_min":1,"x_max":736,"o":"m 393 792 q 620 710 515 792 l 620 773 l 736 773 l 736 0 l 620 0 l 620 318 q 523 97 598 196 q 323 -21 434 -21 q 78 96 164 -21 q 1 366 1 201 q 105 667 1 548 q 393 792 213 792 m 620 592 q 393 698 520 698 q 184 596 259 698 q 117 366 117 505 q 162 177 117 251 q 323 87 216 87 q 544 250 453 87 q 620 532 620 389 l 620 592 m 617 926 l 463 926 l 463 1080 l 617 1080 l 617 926 m 309 926 l 154 926 l 154 1080 l 309 1080 l 309 926 z "},"å":{"ha":927,"x_min":1,"x_max":736,"o":"m 393 792 q 620 710 515 792 l 620 773 l 736 773 l 736 0 l 620 0 l 620 318 q 523 97 598 196 q 323 -21 434 -21 q 78 96 164 -21 q 1 366 1 201 q 105 667 1 548 q 393 792 213 792 m 620 592 q 393 698 520 698 q 184 596 259 698 q 117 366 117 505 q 162 177 117 251 q 323 87 216 87 q 544 250 453 87 q 620 532 620 389 l 620 592 m 573 1042 q 519 909 573 963 q 386 855 465 855 q 254 909 309 855 q 199 1042 199 963 q 254 1174 199 1119 q 386 1229 309 1229 q 519 1174 465 1229 q 573 1042 573 1119 m 499 1042 q 466 1121 499 1088 q 386 1154 433 1154 q 307 1121 340 1154 q 274 1042 274 1088 q 307 962 274 995 q 386 929 340 929 q 466 962 433 929 q 499 1042 499 995 z "},"æ":{"ha":924,"x_min":-33,"x_max":790,"o":"m 790 347 l 436 347 q 564 73 436 73 q 682 189 659 73 l 775 160 q 573 -20 718 -20 q 418 116 476 -20 l 418 1 l 322 1 l 322 239 q 275 66 295 112 q 170 -20 237 -20 q 16 97 71 -20 q -33 366 -33 201 l -32 366 q 205 792 -32 792 q 322 721 280 792 l 322 773 l 418 773 l 418 668 q 563 792 472 792 q 753 649 698 792 q 790 347 790 547 m 668 448 q 654 621 668 573 q 554 698 630 698 q 456 621 482 698 q 437 448 437 567 l 668 448 m 322 525 l 322 619 q 205 698 275 698 q 83 366 83 698 q 177 88 83 88 q 287 237 246 88 q 322 525 322 362 z "},"ç":{"ha":927,"x_min":8,"x_max":750,"o":"m 750 145 q 463 -19 657 -1 l 463 -37 q 394 -232 463 -157 q 201 -308 324 -308 l 201 -212 q 367 -37 367 -212 l 367 -19 q 98 116 197 -4 q 8 385 8 226 q 104 668 8 557 q 399 792 210 792 q 557 746 485 792 q 641 646 625 703 l 641 773 l 741 773 l 741 465 l 641 465 q 561 635 641 564 q 399 698 487 698 q 184 598 258 698 q 122 385 122 514 q 192 172 122 259 q 413 72 271 72 q 568 107 499 72 q 670 201 638 143 l 750 145 z "},"è":{"ha":927,"x_min":-3,"x_max":780,"o":"m 780 346 l 116 346 q 196 157 128 231 q 404 72 274 72 q 559 108 490 72 q 660 201 629 144 l 740 145 q 404 -21 635 -21 q 102 102 215 -21 q -3 385 -3 215 q 95 668 -3 557 q 389 792 201 792 q 698 649 596 792 q 780 346 780 533 m 659 447 q 389 698 622 698 q 194 621 266 698 q 117 447 133 556 l 659 447 m 573 995 l 540 941 l 183 1143 l 237 1232 l 573 995 z "},"é":{"ha":927,"x_min":-3,"x_max":780,"o":"m 780 346 l 116 346 q 196 157 128 231 q 404 72 274 72 q 559 108 490 72 q 660 201 629 144 l 740 145 q 404 -21 635 -21 q 102 102 215 -21 q -3 385 -3 215 q 95 668 -3 557 q 389 792 201 792 q 698 649 596 792 q 780 346 780 533 m 659 447 q 389 698 622 698 q 194 621 266 698 q 117 447 133 556 l 659 447 m 588 1143 l 231 941 l 199 995 l 534 1232 l 588 1143 z "},"ê":{"ha":927,"x_min":-3,"x_max":780,"o":"m 780 346 l 116 346 q 196 157 128 231 q 404 72 274 72 q 559 108 490 72 q 660 201 629 144 l 740 145 q 404 -21 635 -21 q 102 102 215 -21 q -3 385 -3 215 q 95 668 -3 557 q 389 792 201 792 q 698 649 596 792 q 780 346 780 533 m 659 447 q 389 698 622 698 q 194 621 266 698 q 117 447 133 556 l 659 447 m 633 997 l 590 942 l 389 1111 l 184 941 l 141 995 l 388 1235 l 633 997 z "},"ë":{"ha":927,"x_min":-3,"x_max":780,"o":"m 780 346 l 116 346 q 196 157 128 231 q 404 72 274 72 q 559 108 490 72 q 660 201 629 144 l 740 145 q 404 -21 635 -21 q 102 102 215 -21 q -3 385 -3 215 q 95 668 -3 557 q 389 792 201 792 q 698 649 596 792 q 780 346 780 533 m 659 447 q 389 698 622 698 q 194 621 266 698 q 117 447 133 556 l 659 447 m 617 926 l 463 926 l 463 1080 l 617 1080 l 617 926 m 309 926 l 154 926 l 154 1080 l 309 1080 l 309 926 z "},"ì":{"ha":927,"x_min":154,"x_max":617,"o":"m 617 0 l 154 0 l 154 101 l 328 101 l 328 672 l 154 672 l 154 773 l 443 773 l 443 101 l 617 101 l 617 0 m 573 995 l 540 941 l 183 1143 l 237 1232 l 573 995 z "},"í":{"ha":927,"x_min":154,"x_max":617,"o":"m 617 0 l 154 0 l 154 101 l 328 101 l 328 672 l 154 672 l 154 773 l 443 773 l 443 101 l 617 101 l 617 0 m 588 1143 l 231 941 l 199 995 l 534 1232 l 588 1143 z "},"î":{"ha":927,"x_min":141,"x_max":633,"o":"m 617 0 l 154 0 l 154 101 l 328 101 l 328 672 l 154 672 l 154 773 l 443 773 l 443 101 l 617 101 l 617 0 m 633 997 l 590 942 l 389 1111 l 184 941 l 141 995 l 388 1235 l 633 997 z "},"ï":{"ha":927,"x_min":154,"x_max":617,"o":"m 617 0 l 154 0 l 154 101 l 328 101 l 328 672 l 154 672 l 154 773 l 443 773 l 443 101 l 617 101 l 617 0 m 617 926 l 463 926 l 463 1080 l 617 1080 l 617 926 m 309 926 l 154 926 l 154 1080 l 309 1080 l 309 926 z "},"ð":{"ha":927,"x_min":120,"x_max":823,"o":"m 823 418 q 707 87 823 208 q 452 -20 602 -20 q 205 69 295 -20 q 120 279 120 152 q 287 587 120 455 q 620 750 417 691 q 477 893 564 831 l 327 744 l 263 809 l 396 943 q 253 1003 331 977 l 289 1100 q 468 1014 386 1063 l 590 1136 l 655 1071 l 547 962 q 823 418 823 756 m 715 418 q 672 650 715 545 q 393 542 503 615 q 237 278 237 438 q 293 139 237 193 q 452 81 351 81 q 636 172 561 81 q 715 418 715 268 z "},"ñ":{"ha":927,"x_min":42,"x_max":739,"o":"m 739 0 l 622 0 l 622 476 q 453 682 622 682 q 236 581 318 682 q 158 346 158 486 l 158 0 l 42 0 l 42 773 l 158 773 l 158 578 q 453 792 239 792 q 739 476 739 792 l 739 0 m 701 1136 q 497 1006 625 1006 q 356 1064 418 1006 q 268 1102 317 1102 q 131 1011 184 1102 l 64 1051 q 268 1179 140 1179 q 409 1121 347 1179 q 497 1083 449 1083 q 635 1176 581 1083 l 701 1136 z "},"ò":{"ha":927,"x_min":-19,"x_max":794,"o":"m 794 384 q 691 101 794 215 q 388 -21 578 -21 q 86 101 198 -21 q -19 384 -19 215 q 86 668 -19 554 q 388 790 198 790 q 691 668 578 790 q 794 384 794 554 m 679 384 q 610 597 679 511 q 388 697 530 697 q 167 597 246 697 q 97 384 97 511 q 167 170 97 258 q 388 71 246 71 q 610 170 530 71 q 679 384 679 258 m 573 995 l 540 941 l 183 1143 l 237 1232 l 573 995 z "},"ó":{"ha":927,"x_min":-19,"x_max":794,"o":"m 794 384 q 691 101 794 215 q 388 -21 578 -21 q 86 101 198 -21 q -19 384 -19 215 q 86 668 -19 554 q 388 790 198 790 q 691 668 578 790 q 794 384 794 554 m 679 384 q 610 597 679 511 q 388 697 530 697 q 167 597 246 697 q 97 384 97 511 q 167 170 97 258 q 388 71 246 71 q 610 170 530 71 q 679 384 679 258 m 588 1143 l 231 941 l 199 995 l 534 1232 l 588 1143 z "},"ô":{"ha":927,"x_min":-19,"x_max":794,"o":"m 794 384 q 691 101 794 215 q 388 -21 578 -21 q 86 101 198 -21 q -19 384 -19 215 q 86 668 -19 554 q 388 790 198 790 q 691 668 578 790 q 794 384 794 554 m 679 384 q 610 597 679 511 q 388 697 530 697 q 167 597 246 697 q 97 384 97 511 q 167 170 97 258 q 388 71 246 71 q 610 170 530 71 q 679 384 679 258 m 633 997 l 590 942 l 389 1111 l 184 941 l 141 995 l 388 1235 l 633 997 z "},"õ":{"ha":927,"x_min":-19,"x_max":794,"o":"m 794 384 q 691 101 794 215 q 388 -21 578 -21 q 86 101 198 -21 q -19 384 -19 215 q 86 668 -19 554 q 388 790 198 790 q 691 668 578 790 q 794 384 794 554 m 679 384 q 610 597 679 511 q 388 697 530 697 q 167 597 246 697 q 97 384 97 511 q 167 170 97 258 q 388 71 246 71 q 610 170 530 71 q 679 384 679 258 m 701 1136 q 497 1006 625 1006 q 356 1064 418 1006 q 268 1102 317 1102 q 131 1011 184 1102 l 64 1051 q 268 1179 140 1179 q 409 1121 347 1179 q 497 1083 449 1083 q 635 1176 581 1083 l 701 1136 z "},"ö":{"ha":927,"x_min":-19,"x_max":794,"o":"m 794 384 q 691 101 794 215 q 388 -21 578 -21 q 86 101 198 -21 q -19 384 -19 215 q 86 668 -19 554 q 388 790 198 790 q 691 668 578 790 q 794 384 794 554 m 679 384 q 610 597 679 511 q 388 697 530 697 q 167 597 246 697 q 97 384 97 511 q 167 170 97 258 q 388 71 246 71 q 610 170 530 71 q 679 384 679 258 m 617 926 l 463 926 l 463 1080 l 617 1080 l 617 926 m 309 926 l 154 926 l 154 1080 l 309 1080 l 309 926 z "},"÷":{"ha":924,"x_min":0,"x_max":770,"o":"m 461 773 l 308 773 l 308 923 l 461 923 l 461 773 m 770 495 l 0 495 l 0 587 l 770 587 l 770 495 m 461 155 l 308 155 l 308 306 l 461 306 l 461 155 z "},"ø":{"ha":924,"x_min":-37,"x_max":809,"o":"m 809 773 l 809 674 l 731 611 q 792 386 792 511 q 679 93 792 206 q 386 -20 566 -20 q 88 98 201 -20 l -37 -1 l -37 98 l 42 160 q -19 386 -19 260 q 93 679 -19 566 q 386 792 206 792 q 684 673 572 792 l 809 773 m 600 606 q 386 698 521 698 q 172 607 253 698 q 96 386 96 521 q 130 231 96 303 l 600 606 m 677 386 q 643 540 677 468 l 172 165 q 386 73 251 73 q 600 164 520 73 q 677 386 677 251 z "},"ù":{"ha":927,"x_min":40,"x_max":737,"o":"m 737 0 l 621 0 l 621 194 q 326 -19 540 -19 q 40 297 40 -19 l 40 773 l 157 773 l 157 297 q 326 90 157 90 q 543 191 461 90 q 621 427 621 287 l 621 773 l 737 773 l 737 0 m 573 995 l 540 941 l 183 1143 l 237 1232 l 573 995 z "},"ú":{"ha":927,"x_min":40,"x_max":737,"o":"m 737 0 l 621 0 l 621 194 q 326 -19 540 -19 q 40 297 40 -19 l 40 773 l 157 773 l 157 297 q 326 90 157 90 q 543 191 461 90 q 621 427 621 287 l 621 773 l 737 773 l 737 0 m 588 1143 l 231 941 l 199 995 l 534 1232 l 588 1143 z "},"û":{"ha":927,"x_min":40,"x_max":737,"o":"m 737 0 l 621 0 l 621 194 q 326 -19 540 -19 q 40 297 40 -19 l 40 773 l 157 773 l 157 297 q 326 90 157 90 q 543 191 461 90 q 621 427 621 287 l 621 773 l 737 773 l 737 0 m 633 997 l 590 942 l 389 1111 l 184 941 l 141 995 l 388 1235 l 633 997 z "},"ü":{"ha":927,"x_min":40,"x_max":737,"o":"m 737 0 l 621 0 l 621 194 q 326 -19 540 -19 q 40 297 40 -19 l 40 773 l 157 773 l 157 297 q 326 90 157 90 q 543 191 461 90 q 621 427 621 287 l 621 773 l 737 773 l 737 0 m 617 926 l 463 926 l 463 1080 l 617 1080 l 617 926 m 309 926 l 154 926 l 154 1080 l 309 1080 l 309 926 z "},"ý":{"ha":927,"x_min":-6,"x_max":765,"o":"m 765 771 l 396 -176 q 324 -261 376 -225 q 162 -308 256 -308 q 8 -280 91 -308 l 33 -164 q 170 -189 124 -189 q 273 -128 247 -189 l 317 -21 l -6 771 l 129 771 l 389 105 l 630 771 l 765 771 m 588 1143 l 231 941 l 199 995 l 534 1232 l 588 1143 z "},"þ":{"ha":926,"x_min":37,"x_max":771,"o":"m 771 385 q 676 101 771 212 q 380 -21 569 -21 q 153 61 258 -21 l 153 -308 l 37 -308 l 37 1136 l 153 1136 l 153 710 q 380 790 258 790 q 676 668 569 790 q 771 385 771 557 m 657 385 q 595 598 657 514 q 380 698 521 698 q 153 592 254 698 l 153 178 q 380 72 254 72 q 595 172 521 72 q 657 385 657 255 z "},"ÿ":{"ha":927,"x_min":-6,"x_max":765,"o":"m 765 771 l 396 -176 q 324 -261 376 -225 q 162 -308 256 -308 q 8 -280 91 -308 l 33 -164 q 170 -189 124 -189 q 273 -128 247 -189 l 317 -21 l -6 771 l 129 771 l 389 105 l 630 771 l 765 771 m 617 926 l 463 926 l 463 1080 l 617 1080 l 617 926 m 309 926 l 154 926 l 154 1080 l 309 1080 l 309 926 z "}}}
